PathFileType	4	(X/Y/Z)	Kaydara	
DataRate	CameraRate	NumFrames	NumMarkers	Units	OrigDataRate	OrigDataStartFrame	OrigNumFrames	
60.00	60.00	4	74	mm	60.00	1061	141	
Frame#	Time	Z_lasi			Z_rasi			Z_rpsi			Z_lpsi			Z_fneck			Z_bneck			Z_fhead			Z_rhead			Z_lhead			Z_rshld			Z_relbtop			Z_relbext			Z_relblow			Z_rwrext			Z_rwrtop			Z_rwrlow			Z_lshld			Z_lelbext			Z_lelblow			Z_lelbtop			Z_lwrext			Z_lwrtop			Z_lwrlow			Z_rtopleg			Z_ltopleg			Z_rkneefr			Z_rkneebk			Z_rkneeis			Z_lkneefr			Z_lknssbk			Z_lkneeis			Z_rankfr			Z_rankis			Z_rankbk			Z_lankfr			Z_lankbk			Z_lankis			A_lasi			A_rasi			A_rpsi			A_lpsi			A_fneck			A_bneck			A_fhead			A_rhead			A_lhead			A_rshld			A_relbtop			A_relbext			A_relblow			A_rwrext			A_rwrtop			A_rwrlow			A_lshld			A_lelbext			A_lelblow			A_lelbtop			A_lwrext			A_lwrtop			A_lwrlow			A_rtopleg			A_ltopleg			A_rkneefr			A_rkneebk			A_rkneeis			A_lkneefr			A_lknssbk			A_lkneeis			A_rankfr			A_rankis			A_rankbk			A_lankfr			A_lankbk			A_lankis			
		X1	Y1	Z1	X2	Y2	Z2	X3	Y3	Z3	X4	Y4	Z4	X5	Y5	Z5	X6	Y6	Z6	X7	Y7	Z7	X8	Y8	Z8	X9	Y9	Z9	X10	Y10	Z10	X11	Y11	Z11	X12	Y12	Z12	X13	Y13	Z13	X14	Y14	Z14	X15	Y15	Z15	X16	Y16	Z16	X17	Y17	Z17	X18	Y18	Z18	X19	Y19	Z19	X20	Y20	Z20	X21	Y21	Z21	X22	Y22	Z22	X23	Y23	Z23	X24	Y24	Z24	X25	Y25	Z25	X26	Y26	Z26	X27	Y27	Z27	X28	Y28	Z28	X29	Y29	Z29	X30	Y30	Z30	X31	Y31	Z31	X32	Y32	Z32	X33	Y33	Z33	X34	Y34	Z34	X35	Y35	Z35	X36	Y36	Z36	X37	Y37	Z37	X38	Y38	Z38	X39	Y39	Z39	X40	Y40	Z40	X41	Y41	Z41	X42	Y42	Z42	X43	Y43	Z43	X44	Y44	Z44	X45	Y45	Z45	X46	Y46	Z46	X47	Y47	Z47	X48	Y48	Z48	X49	Y49	Z49	X50	Y50	Z50	X51	Y51	Z51	X52	Y52	Z52	X53	Y53	Z53	X54	Y54	Z54	X55	Y55	Z55	X56	Y56	Z56	X57	Y57	Z57	X58	Y58	Z58	X59	Y59	Z59	X60	Y60	Z60	X61	Y61	Z61	X62	Y62	Z62	X63	Y63	Z63	X64	Y64	Z64	X65	Y65	Z65	X66	Y66	Z66	X67	Y67	Z67	X68	Y68	Z68	X69	Y69	Z69	X70	Y70	Z70	X71	Y71	Z71	X72	Y72	Z72	X73	Y73	Z73	X74	Y74	Z74	

1	17.667	-222.12109	1070.31616	751.46233	-277.82373	1087.95486	551.39778	-104.94704	1116.26198	469.02203	-33.50267	1096.12793	703.37250	-207.86417	1451.82037	667.11090	-92.26442	1499.61426	672.43958	-250.29072	1675.90378	657.99454	-92.13442	1646.21063	608.31291	-115.48693	1632.41196	753.33527	-157.14740	1453.76297	455.59147	-103.21775	1145.46097	346.49494	-82.26447	1123.60657	400.45547	-173.23750	1148.22220	378.55797	-188.55383	912.85606	321.79676	-224.92735	922.46353	347.79472	-205.23567	915.33592	385.33249	-100.64368	1420.06973	847.94601	-74.14906	1101.75171	838.88710	-134.13214	1122.08023	903.99811	-65.20734	1118.78311	908.28934	-204.77844	867.79541	885.27458	-192.76154	858.28751	930.15488	-147.18597	853.87291	920.59746	-151.10080	926.18958	418.67397	-130.62462	887.65854	784.14749	-239.33907	425.67738	427.94983	-165.43213	456.92116	385.15759	-180.45238	427.39609	507.13844	-185.95406	442.88227	713.51166	-80.59278	467.07241	704.20433	-174.87663	444.01512	620.80299	-201.15768	185.84406	386.57352	-181.34020	174.94144	449.37050	-124.72166	176.95698	382.91950	-125.88554	159.00238	686.13007	-68.34943	165.26785	629.01062	-147.38658	174.18629	618.36456	-990.24719	1033.81027	471.58455	-978.34114	1040.11337	630.95909	-1137.25914	1036.63193	652.37930	-1113.68004	1040.47020	469.66640	-1044.31908	1383.05710	565.09411	-1184.92050	1396.99905	552.82677	-1013.23555	1604.69925	593.42354	-1159.12949	1537.80746	656.54686	-1142.05811	1554.25186	494.55116	-1113.63159	1351.50635	739.94926	-1064.40109	1069.49852	787.92183	-1126.31020	1051.07460	798.04428	-1083.14125	1058.24631	733.69247	-962.18277	863.50204	704.71458	-925.32578	889.73373	711.36978	-936.23558	912.43935	680.53314	-1080.71594	1353.13477	386.39397	-1077.99583	1039.50500	340.25944	-1028.83705	1065.33340	392.88521	-1030.73975	1055.55260	338.54755	-942.82486	896.73233	481.61800	-925.87791	880.57205	444.54933	-894.66911	909.41895	461.80069	-1077.11159	875.40413	733.54431	-1045.20645	890.20912	396.04256	-1030.15785	452.43092	641.50955	-1137.60094	485.62908	686.54617	-1118.02856	485.67455	568.22502	-1016.41083	465.70900	509.39156	-1101.19423	479.65977	414.49383	-1123.02551	478.69286	538.74115	-1100.03860	165.45666	663.40530	-1133.33252	162.25582	597.71717	-1181.26991	153.22827	667.09511	-1068.43674	166.07533	457.37434	-1129.60892	167.55573	421.99242	-1128.02383	172.76951	511.42002 
2	17.683	-222.21807	1070.37514	751.29990	-277.60475	1088.01102	551.15894	-104.65291	1116.21445	468.93459	-33.48347	1096.04492	703.44444	-207.48331	1451.73660	666.80641	-91.97439	1499.63440	672.33856	-250.50245	1675.53848	657.79282	-92.27687	1646.44287	608.06458	-115.59457	1632.55936	753.01575	-156.38324	1453.73444	455.39616	-103.00703	1145.09453	346.74049	-81.96348	1123.36914	400.68077	-173.02082	1148.11966	379.00501	-189.50819	912.71881	323.47561	-225.54968	922.54974	349.73656	-205.55731	915.46356	387.16476	-100.62742	1419.98016	847.83791	-74.34531	1101.60393	838.74054	-134.44100	1121.95274	903.62900	-65.38858	1118.63335	907.97607	-204.34975	867.25929	885.22415	-192.22498	857.78389	930.05722	-146.58025	853.56270	920.73929	-150.95045	926.14418	418.60954	-130.80812	887.70203	784.06990	-239.29178	425.72063	427.94106	-165.36238	456.90990	385.13874	-180.45660	427.39784	507.14611	-186.07058	442.89047	713.46725	-80.71890	467.09206	704.18793	-174.96250	444.01993	620.75932	-201.12135	185.82912	386.55693	-181.33427	174.93216	449.36455	-124.71126	176.93573	382.90947	-125.88418	158.99545	686.09619	-68.37445	165.26712	628.99956	-147.41040	174.20795	618.35854	-990.43724	1033.76816	471.42033	-978.71742	1039.88304	630.86819	-1137.56134	1036.80283	652.36664	-1113.92403	1040.67757	469.69456	-1043.53111	1383.41202	565.37174	-1184.20921	1397.03751	552.69012	-1013.97148	1605.62927	593.50193	-1159.69254	1537.55447	656.18179	-1142.08893	1553.85880	494.12922	-1112.92389	1352.16217	739.94812	-1064.43138	1070.03830	788.86009	-1126.30074	1051.91147	798.75420	-1082.66731	1058.58887	735.07294	-964.46907	861.92368	707.43034	-927.11807	887.66838	713.77708	-937.84599	909.83139	682.76016	-1078.85735	1353.16223	386.71738	-1075.10994	1040.20554	338.96950	-1027.82959	1065.00900	393.52280	-1027.61131	1055.85762	339.07326	-945.30220	894.64264	482.51175	-929.32419	877.25647	446.10821	-897.50679	905.28740	463.56667	-1077.56851	875.49355	733.37997	-1045.93246	890.20485	395.93494	-1030.51521	452.44106	641.32805	-1138.01659	485.62180	686.39824	-1118.35358	485.57819	568.16929	-1016.79558	465.76870	509.20746	-1101.62407	479.63375	414.36882	-1123.45284	478.67817	538.70743	-1100.14938	165.45248	663.33336	-1133.40485	162.20974	597.69268	-1181.40762	153.12868	666.95389	-1068.53172	166.12560	457.27936	-1129.72130	167.54383	421.94363	-1128.14117	172.73859	511.39053 
3	17.700	-222.27047	1070.41435	751.12007	-277.41093	1088.08167	550.88223	-104.89307	1116.08391	469.76261	-33.46302	1095.92667	703.45444	-207.05790	1451.65329	666.48819	-91.52658	1499.71146	672.10579	-250.66843	1675.19104	657.51114	-92.37666	1646.60355	607.78107	-115.63220	1632.67853	752.65953	-155.69696	1453.66028	455.12901	-103.22504	1144.53033	347.17720	-82.23481	1122.90237	401.11862	-173.17350	1147.88452	379.64291	-191.03903	912.47208	325.23956	-226.89030	922.53555	351.82606	-206.55210	915.44418	389.07944	-100.34476	1419.96262	847.51312	-74.58817	1101.47385	838.54401	-134.70154	1121.72989	903.22884	-65.65131	1118.50121	907.68951	-203.92422	866.70883	884.96086	-191.79567	857.34619	929.83803	-146.05777	853.39211	920.47729	-150.70502	926.10825	418.40897	-131.00809	887.72820	783.96378	-239.27980	425.69645	427.84931	-165.29280	456.89270	385.06092	-180.41346	427.38644	507.02656	-186.26461	442.90951	713.41843	-80.88765	467.07623	704.07425	-175.10426	444.01947	620.68138	-201.10954	185.82966	386.53305	-181.32967	174.93063	449.34464	-124.70200	176.89741	382.90028	-125.93819	158.98928	686.03912	-68.43442	165.26251	628.94848	-147.49124	174.19073	618.32275	-990.54390	1033.80875	471.32263	-979.07402	1039.72748	630.87212	-1137.83424	1037.01981	652.39174	-1114.19060	1040.93918	469.73118	-1043.10310	1383.61008	565.62542	-1183.73734	1397.35077	552.48291	-1014.42078	1606.02402	593.66768	-1160.21492	1537.86438	655.67101	-1141.85974	1553.92426	494.00581	-1112.75635	1352.72247	739.89189	-1063.85551	1071.16554	790.19714	-1125.73921	1053.04176	800.05981	-1082.19780	1059.22752	736.04393	-966.10611	860.79010	709.49425	-928.49159	886.26984	715.52650	-938.84430	907.70409	683.94005	-1077.26448	1353.27927	387.19688	-1072.11113	1040.97679	337.97371	-1026.39198	1064.76204	393.97919	-1024.63081	1056.13556	339.58443	-946.38329	893.08357	483.52783	-931.48224	874.69254	446.94653	-898.98766	901.96228	464.21795	-1078.03001	875.51117	733.21960	-1046.51443	890.27489	395.76946	-1030.88196	452.39147	641.22620	-1138.51021	485.58659	686.35414	-1118.63655	485.46719	568.07487	-1017.21443	465.76759	509.23870	-1101.97556	479.59122	414.30164	-1123.83591	478.64914	538.66146	-1100.31837	165.47333	663.32451	-1133.50204	162.20577	597.62821	-1181.52641	153.04793	666.86073	-1068.72444	166.12192	457.31300	-1129.88304	167.49153	421.97018	-1128.24600	172.69939	511.33450 
4	17.717	-222.26397	1070.44937	750.87090	-277.22546	1088.12233	550.59704	-105.55218	1116.08414	470.92079	-33.35061	1095.77232	703.39523	-206.69811	1451.57104	666.14555	-91.15431	1499.77173	671.81732	-250.73200	1674.90448	657.18536	-92.41885	1646.76041	607.35390	-115.53496	1632.66785	752.30621	-155.03224	1453.56873	454.78642	-103.99179	1143.81424	347.76947	-82.83188	1122.40616	401.67461	-173.75584	1147.57736	380.43465	-193.08083	912.14760	327.16862	-228.69137	922.53540	353.86646	-208.27448	915.36484	390.98930	-100.24635	1419.92325	847.29744	-74.89079	1101.36009	838.31581	-134.99911	1121.57814	902.80746	-65.98043	1118.37082	907.40219	-203.64218	866.35719	884.66476	-191.57240	857.14966	929.62723	-145.90837	853.16147	920.33646	-150.23802	926.09856	417.99629	-131.22658	887.70325	783.84155	-239.23399	425.70530	427.74590	-165.23371	456.85535	384.91547	-180.32120	427.34615	506.86249	-186.44289	442.87045	713.30536	-81.24891	467.06913	704.02092	-175.27157	443.99479	620.56908	-201.09215	185.81320	386.48605	-181.31310	174.94146	449.29634	-124.64836	176.86861	382.81792	-125.97569	158.98725	685.97603	-68.52090	165.27359	628.94592	-147.53912	174.14921	618.25733	-990.47676	1033.85780	471.27888	-979.58817	1039.66721	631.03638	-1138.08449	1037.25449	652.33879	-1114.32800	1041.16867	469.77028	-1043.10463	1383.66837	565.92937	-1183.72849	1397.86957	552.27856	-1014.05266	1606.03577	593.46313	-1160.49171	1538.51990	655.07652	-1141.21925	1553.94669	493.30402	-1113.06847	1353.15155	739.87900	-1062.71225	1072.00363	790.28343	-1124.38744	1054.01077	801.63437	-1081.54770	1059.52255	736.40518	-967.18552	859.78104	710.66017	-929.41956	885.10918	716.74423	-939.52484	905.76187	684.99245	-1075.93643	1353.45917	387.68902	-1069.27505	1041.60606	337.47841	-1024.74525	1064.74289	394.39842	-1021.91864	1056.47659	340.15366	-946.72279	891.60294	483.79276	-931.99852	872.90321	446.93062	-899.14520	899.89807	464.19548	-1078.53065	875.56793	733.14079	-1046.93504	890.31242	395.76801	-1031.20544	452.35279	641.18324	-1139.12743	485.59616	686.39320	-1119.04861	485.34874	567.96783	-1017.76985	465.73845	509.38515	-1102.28333	479.53011	414.24637	-1124.16702	478.60668	538.65723	-1100.46730	165.43888	663.33931	-1133.65067	162.15170	597.60216	-1181.70692	152.96606	666.84410	-1068.83682	166.12997	457.31964	-1129.98947	167.44877	421.97056	-1128.36266	172.67351	511.37760 
